# xmcd CD database file
#
# Track frame offsets:
#	150
#	26727
#	60225
#	99442
#	127145
#	182405
#	217712
#	238145
#	265000
#
# Disc length: 3813 seconds
#
# Revision: 0
# Processed by: cddbd v1.5.1PL0 Copyright (c) Steve Scherf et al.
# Submitted via: CDex 1.51
#
DISCID=710ee309
DTITLE=wroblewski donner klemm - wroblewski donner klemm
DYEAR=1991
DGENRE=Jazz
TTITLE0=This Masquerade
TTITLE1=A Child is born
TTITLE2=Youre Everything - Oleo
TTITLE3=A Night in Tunesia
TTITLE4=Black Orpheus
TTITLE5=Silver Mood
TTITLE6=Blues for Eddie
TTITLE7=ST. Michel
TTITLE8=Accident
EXTD=YEAR: 1991
EXTT0=
EXTT1=
EXTT2=
EXTT3=
EXTT4=
EXTT5=
EXTT6=
EXTT7=
EXTT8=
PLAYORDER=
